<svg width="67" height="75" viewBox="0 0 67 75" fill="none" xmlns="http://www.w3.org/2000/svg">
<path d="M53.902 0H13.098C9.6242 0 6.29267 1.37555 3.83632 3.82404C1.37997 6.27254 0 9.5934 0 13.0561V53.7169C0.000945908 56.1934 0.709037 58.6184 2.04151 60.7086C3.37398 62.7987 5.27578 64.4676 7.52461 65.5202V70.6612C7.52509 71.8121 7.98409 72.9157 8.80067 73.7293C9.61726 74.5429 10.7246 75 11.8792 75H14.8919C16.0463 75 17.1535 74.5429 17.9698 73.7292C18.7861 72.9155 19.2446 71.8119 19.2446 70.6612V66.7766H47.7554V70.6612C47.7554 71.8119 48.214 72.9155 49.0302 73.7292C49.8465 74.5429 50.9537 75 52.1081 75H55.1208C56.2754 75 57.3827 74.5429 58.1993 73.7293C59.0159 72.9157 59.4749 71.8121 59.4754 70.6612V65.5238C61.7248 64.471 63.6269 62.8015 64.9595 60.7107C66.292 58.6198 66.9997 56.194 67 53.7169V13.0471C66.9976 9.58595 65.6166 6.2674 63.1605 3.82085C60.7044 1.37431 57.3742 -8.2469e-07 53.902 0ZM15.7455 58.2901C14.5652 58.2901 13.4114 57.9412 12.43 57.2876C11.4487 56.6339 10.6838 55.7049 10.2321 54.6179C9.78042 53.531 9.66224 52.335 9.8925 51.1811C10.1228 50.0272 10.6911 48.9672 11.5257 48.1353C12.3603 47.3034 13.4236 46.7369 14.5812 46.5073C15.7388 46.2778 16.9387 46.3956 18.0292 46.8458C19.1196 47.2961 20.0516 48.0585 20.7073 49.0367C21.3631 50.015 21.7131 51.165 21.7131 52.3416C21.7107 53.9167 21.0816 55.4266 19.9639 56.5401C18.8462 57.6535 17.3311 58.2796 15.7509 58.2811L15.7455 58.2901ZM51.2437 58.2901C50.0634 58.2901 48.9096 57.9412 47.9283 57.2876C46.9469 56.6339 46.182 55.7049 45.7303 54.6179C45.2787 53.531 45.1605 52.335 45.3908 51.1811C45.621 50.0272 46.1894 48.9672 47.024 48.1353C47.8585 47.3034 48.9219 46.7369 50.0795 46.5073C51.2371 46.2778 52.437 46.3956 53.5274 46.8458C54.6178 47.2961 55.5499 48.0585 56.2056 49.0367C56.8613 50.015 57.2113 51.165 57.2113 52.3416C57.2089 53.9167 56.5799 55.4266 55.4622 56.5401C54.3445 57.6535 52.8293 58.2796 51.2491 58.2811L51.2437 58.2901ZM57.6037 34.7502H9.39085V14.691H57.6092L57.6037 34.7502Z" fill="white"/>
</svg>
