<svg width="21" height="21" viewBox="0 0 21 21" fill="none" xmlns="http://www.w3.org/2000/svg">
<path d="M10.5405 0.915649C5.23323 0.915649 0.930298 5.20514 0.930298 10.4971C0.930298 15.789 5.23323 20.0794 10.5405 20.0794C13.1309 20.0794 15.5669 19.0579 17.358 17.2648C17.7328 16.8891 17.7347 16.2902 17.358 15.9174C16.9824 15.5436 16.3815 15.5417 16.0068 15.9174C14.5731 17.353 12.6143 18.1628 10.5405 18.1628C6.29506 18.1628 2.85273 14.731 2.85273 10.4971C2.85273 6.26409 6.29506 2.83232 10.5405 2.83232C11.0714 2.83232 11.5017 2.40298 11.5017 1.87398C11.5017 1.34498 11.0714 0.915649 10.5405 0.915649ZM14.0547 1.7839C13.8218 1.86057 13.6311 2.0254 13.5142 2.26307C13.2803 2.7384 13.4586 3.31723 13.9349 3.55107C14.1908 3.67565 14.416 3.81654 14.6555 3.96987C15.1021 4.25449 15.7212 4.11648 16.0068 3.67086C16.2924 3.22427 16.1534 2.63777 15.7068 2.35315C15.4059 2.16148 15.0954 2.00048 14.7753 1.84427C14.5377 1.72735 14.2885 1.7082 14.0547 1.7839ZM17.4481 4.14909C17.2047 4.12034 16.9364 4.19604 16.7275 4.35896C16.3106 4.68575 16.2493 5.29046 16.578 5.70638C16.7533 5.92967 16.9373 6.15392 17.0878 6.39542C17.3676 6.84487 17.9589 6.9733 18.4094 6.69443C18.8607 6.41555 18.9891 5.85683 18.7103 5.40737C18.5224 5.10549 18.2991 4.7883 18.0787 4.50846C17.9149 4.3005 17.6925 4.1788 17.4481 4.14909ZM10.5405 4.74805C10.0105 4.74805 9.58021 5.17738 9.58021 5.70638V10.4971C9.58021 10.752 9.7 11.0059 9.88016 11.1861L12.7628 14.0602C13.1385 14.4349 13.7394 14.4349 14.115 14.0602C14.4898 13.6864 14.4898 13.0577 14.115 12.683L11.5017 10.0782V5.70638C11.5017 5.17738 11.0714 4.74805 10.5405 4.74805ZM18.7697 7.65276C18.2512 7.7668 17.934 8.27371 18.049 8.79025C18.1103 9.06721 18.1697 9.34609 18.1995 9.6288C18.255 10.1549 18.7227 10.5229 19.2508 10.4673C19.7778 10.4118 20.1477 9.94605 20.0912 9.41992C20.0538 9.06534 20.0184 8.71747 19.9408 8.37151C19.8267 7.85497 19.2881 7.53872 18.7697 7.65276ZM19.1904 11.5455C18.6748 11.4209 18.1439 11.7496 18.0193 12.2642C17.9522 12.5412 17.8458 12.8066 17.749 13.0721C17.567 13.5695 17.8506 14.0889 18.3499 14.27C18.8483 14.4511 19.3696 14.2288 19.5507 13.7314C19.6724 13.3979 19.797 13.0596 19.8813 12.7127C20.0059 12.1991 19.7059 11.67 19.1904 11.5455Z" fill="#D43030"/>
</svg>
