<svg width="25" height="25" viewBox="0 0 25 25" fill="none" xmlns="http://www.w3.org/2000/svg">
<path d="M18.4584 5.56502H16.9659V4.96502C16.9659 4.36502 16.5679 3.96502 15.9709 3.96502C15.3739 3.96502 14.9759 4.36502 14.9759 4.96502V5.56502H11.1948C10.5977 5.56502 10.1997 5.96502 10.1997 6.56502C10.1997 7.16502 10.5977 7.56502 11.1948 7.56502H15.0754V8.16502C15.0754 8.76502 15.4734 9.16502 16.0704 9.16502C16.6674 9.16502 17.0654 8.76502 17.0654 8.16502V7.56502H18.5579C19.2545 7.56502 19.951 8.16502 19.951 8.96502V10.365H4.03058V8.96502C4.03058 8.16502 4.72709 7.56502 5.52311 7.56502H7.01565V8.16502C7.01565 8.76502 7.41366 9.16502 8.01068 9.16502C8.60769 9.16502 9.0057 8.76502 9.0057 8.16502V6.56502V4.96502C9.0057 4.36502 8.60769 3.96502 8.01068 3.96502C7.41366 3.96502 7.01565 4.36502 7.01565 4.96502V5.56502H5.52311C3.53306 5.56502 2.04053 7.06502 2.04053 8.96502V18.565C2.04053 20.465 3.53306 21.965 5.52311 21.965H18.5579C20.4485 21.965 22.0405 20.465 22.0405 18.565V8.96502C21.941 7.06502 20.4485 5.56502 18.4584 5.56502ZM18.4584 19.965H5.52311C4.72709 19.965 4.03058 19.365 4.03058 18.565V12.365H19.951V18.565C19.951 19.365 19.2545 19.965 18.4584 19.965Z" fill="#383B41"/>
</svg>
