<svg width="35" height="35" viewBox="0 0 35 35" fill="none" xmlns="http://www.w3.org/2000/svg">
<path fill-rule="evenodd" clip-rule="evenodd" d="M1.45825 8.43128C1.45825 5.31708 3.82908 2.91666 6.94619 2.91666H20.762C23.9127 2.91666 26.2499 5.49621 26.2499 8.43128V17.1233C26.2499 20.2714 23.7011 22.638 20.762 22.638H11.6954C10.7503 22.638 9.89297 22.9487 9.09847 23.5185L3.77993 27.4253C3.33686 27.7508 2.74841 27.7994 2.25792 27.5511C1.76742 27.3028 1.45825 26.7998 1.45825 26.25V8.43128ZM4.37492 23.3693L7.39003 21.1545C8.60873 20.2782 10.0523 19.7213 11.6954 19.7213H20.762C22.1403 19.7213 23.3333 18.611 23.3333 17.1233V8.43128C23.3333 7.02033 22.2165 5.83332 20.762 5.83332H6.94619C5.45803 5.83332 4.37492 6.90973 4.37492 8.43128V23.3693Z" fill="#D43030"/>
<path fill-rule="evenodd" clip-rule="evenodd" d="M28.482 12.5721C28.7874 11.8269 29.6391 11.4702 30.3844 11.7755C32.2219 12.5284 33.5417 14.2686 33.5417 16.3078V32.0833C33.5417 32.6183 33.2488 33.1102 32.7786 33.3653C32.3084 33.6203 31.7363 33.5974 31.288 33.3057L26.1838 29.9845C26.152 29.9638 26.1209 29.9418 26.0908 29.9187C25.5308 29.4885 24.6847 29.2518 23.6765 29.2518H15.1195C13.0973 29.2518 11.2132 28.1351 10.3531 26.3511C10.0033 25.6256 10.3078 24.754 11.0333 24.4042C11.7588 24.0544 12.6305 24.3589 12.9803 25.0844C13.3211 25.7913 14.1393 26.3352 15.1195 26.3352H23.6765C25.0519 26.3352 26.5852 26.6437 27.8185 27.5684L30.625 29.3946V16.3078C30.625 15.5794 30.1433 14.8287 29.2786 14.4745C28.5334 14.1691 28.1767 13.3174 28.482 12.5721Z" fill="#D43030"/>
</svg>
