<svg width="25" height="25" viewBox="0 0 25 25" fill="none" xmlns="http://www.w3.org/2000/svg">
<path fill-rule="evenodd" clip-rule="evenodd" d="M3.72391 1.85947C5.0667 0.520954 7.31814 0.89526 8.26877 2.4746L8.27538 2.48558L10.4667 6.23039C11.112 7.35611 10.9492 8.80327 9.98651 9.76295L9.62305 10.1253C10.91 12.1437 12.8649 14.1407 14.841 15.3384L15.2022 15.0183C16.165 14.0796 17.6021 13.9254 18.722 14.5633L18.7301 14.5679L22.4384 16.7242C23.3565 17.1637 23.8397 18.0129 23.9386 18.8608C24.0374 19.7079 23.7663 20.6274 23.1069 21.2846L21.8573 22.5302C20.56 23.8235 18.448 24.3958 16.6457 23.5792C14.2734 22.6097 10.7154 20.7803 7.47259 17.5479C4.22133 14.307 2.38867 10.6495 1.4258 8.41216C0.604381 6.62106 1.17042 4.52101 2.45874 3.2245L3.69507 1.88939C3.70448 1.87923 3.7141 1.86925 3.72391 1.85947ZM5.20787 3.31639L3.97581 4.64688C3.9664 4.65704 3.95678 4.66702 3.94697 4.6768C3.16704 5.45425 2.90755 6.65855 3.32308 7.55601C3.32708 7.56466 3.33096 7.57335 3.33473 7.58211C4.24763 9.70543 5.95463 13.0989 8.94521 16.0799C11.9411 19.0663 15.2448 20.765 17.4542 21.6659C17.4684 21.6717 17.4824 21.6778 17.4963 21.6842C18.3966 22.0984 19.6048 21.8397 20.3847 21.0623L21.6343 19.8167C21.8079 19.6436 21.9013 19.3693 21.8699 19.1006C21.8406 18.8489 21.7158 18.6765 21.5232 18.5892C21.4911 18.5747 21.4598 18.5586 21.4294 18.5409L17.6855 16.3639C17.3574 16.1789 16.9367 16.2249 16.6508 16.5099C16.6364 16.5243 16.6216 16.5382 16.6063 16.5517L15.6692 17.3821C15.3464 17.6681 14.8801 17.7258 14.4969 17.5272C11.6874 16.0709 8.94606 13.2144 7.40449 10.4703C7.17669 10.0648 7.24705 9.55783 7.57672 9.2292L8.51389 8.29501C8.79977 8.01004 8.84591 7.59063 8.66034 7.26363L6.48025 3.53821C6.18351 3.0515 5.53413 3.00709 5.20787 3.31639Z" fill="white"/>
<path fill-rule="evenodd" clip-rule="evenodd" d="M16.9327 8.06725C16.4104 7.54495 15.6036 7.35773 15.0332 7.54788C14.4396 7.74575 13.798 7.42494 13.6001 6.83135C13.4022 6.23776 13.7231 5.59615 14.3166 5.39829C15.7855 4.90868 17.4711 5.40122 18.5349 6.46503C19.5988 7.52885 20.0913 9.21452 19.6017 10.6833C19.4038 11.2769 18.7622 11.5977 18.1686 11.3999C17.575 11.202 17.2542 10.5604 17.4521 9.9668C17.6423 9.39633 17.455 8.58954 16.9327 8.06725Z" fill="white"/>
<path fill-rule="evenodd" clip-rule="evenodd" d="M19.7389 5.26114C17.8908 3.41307 15.2044 2.76268 12.7974 3.41073C12.2307 3.56329 11.6477 3.22761 11.4951 2.66096C11.3426 2.09431 11.6783 1.51128 12.2449 1.35872C15.3631 0.51921 18.8394 1.35638 21.2415 3.75848C23.6436 6.16058 24.4808 9.63694 23.6413 12.7551C23.4887 13.3218 22.9057 13.6574 22.3391 13.5049C21.7724 13.3523 21.4367 12.7693 21.5893 12.2026C22.2373 9.79559 21.5869 7.10921 19.7389 5.26114Z" fill="white"/>
</svg>
