<svg width="14" height="14" viewBox="0 0 14 14" fill="none" xmlns="http://www.w3.org/2000/svg">
<path d="M12.8334 7.00002C12.8334 3.79169 10.2084 1.16669 7.00004 1.16669C3.79171 1.16669 1.16671 3.79169 1.16671 7.00002C1.16671 10.2084 3.79171 12.8334 7.00004 12.8334C10.2084 12.8334 12.8334 10.2084 12.8334 7.00002ZM5.48337 9.33335C5.25004 9.56669 4.90004 9.56669 4.66671 9.33335C4.55004 9.21669 4.49171 9.10002 4.49171 8.92502C4.49171 8.75002 4.55004 8.63335 4.66671 8.51669L6.18338 7.00002L4.66671 5.48335C4.55004 5.36669 4.49171 5.19169 4.49171 5.07502C4.49171 4.90002 4.55004 4.78335 4.66671 4.66669C4.90004 4.43335 5.25004 4.43335 5.48337 4.66669L7.00004 6.18335L8.51671 4.66669C8.75004 4.43335 9.10004 4.43335 9.33337 4.66669C9.56671 4.90002 9.56671 5.25002 9.33337 5.48335L7.81671 7.00002L9.33337 8.51669C9.56671 8.75002 9.56671 9.10002 9.33337 9.33335C9.10004 9.56669 8.75004 9.56669 8.51671 9.33335L7.00004 7.81669L5.48337 9.33335Z" fill="#D43030"/>
</svg>
