<svg width="30" height="30" viewBox="0 0 30 30" fill="none" xmlns="http://www.w3.org/2000/svg">
<g clip-path="url(#clip0_310_853)">
<path d="M14.6603 25.6556C20.7328 25.6556 25.6556 20.7328 25.6556 14.6603C25.6556 8.58784 20.7328 3.6651 14.6603 3.6651C8.58784 3.6651 3.6651 8.58784 3.6651 14.6603C3.6651 20.7328 8.58784 25.6556 14.6603 25.6556Z" stroke="#383B41" stroke-width="1.83254" stroke-linecap="round" stroke-linejoin="round"/>
<path d="M10.9952 12.2169H11.0075" stroke="#383B41" stroke-width="1.83254" stroke-linecap="round" stroke-linejoin="round"/>
<path d="M18.3254 12.2169H18.3377" stroke="#383B41" stroke-width="1.83254" stroke-linecap="round" stroke-linejoin="round"/>
<path d="M11.6061 18.6309C12.0043 18.2245 12.4795 17.9017 13.0039 17.6814C13.5284 17.461 14.0915 17.3475 14.6604 17.3475C15.2292 17.3475 15.7924 17.461 16.3168 17.6814C16.8413 17.9017 17.3165 18.2245 17.7146 18.6309" stroke="#383B41" stroke-width="1.83254" stroke-linecap="round" stroke-linejoin="round"/>
</g>
<defs>
<clipPath id="clip0_310_853">
<rect width="29.3206" height="29.3206" fill="white"/>
</clipPath>
</defs>
</svg>
