<svg width="39" height="38" viewBox="0 0 39 38" fill="none" xmlns="http://www.w3.org/2000/svg">
<path d="M14.4102 30.4779C13.8272 30.4779 13.2443 30.2445 12.6614 29.8945C11.7287 29.1945 11.1458 28.0279 11.379 26.8612L12.0785 22.3112L8.93072 19.0445C8.11463 18.2279 7.76487 16.9445 8.23121 15.7779C8.58096 14.6112 9.51364 13.9112 10.6795 13.6779L15.1097 12.9779L17.0916 8.89453C17.5579 7.84453 18.6072 7.14453 19.773 7.14453C20.9389 7.14453 21.9881 7.84453 22.5711 8.89453L24.4364 12.9779L28.75 13.6779C29.9159 13.7945 30.8485 14.6112 31.1983 15.7779C31.548 16.9445 31.3149 18.1112 30.4988 19.0445L27.351 22.3112L28.0505 26.8612C28.2837 28.0279 27.8173 29.3112 26.7681 29.8945C25.8354 30.5945 24.6696 30.5945 23.6203 30.1279L19.773 27.9112L15.9258 30.0112C15.4594 30.3612 14.9931 30.4779 14.4102 30.4779ZM19.773 9.47786C19.6565 9.47786 19.3067 9.47786 19.1901 9.94453L16.975 14.6112C16.7419 14.9612 16.3921 15.1945 16.0423 15.1945L11.0292 16.0112C10.6795 16.0112 10.5629 16.3612 10.4463 16.4779C10.4463 16.5945 10.3297 16.9445 10.6795 17.2945L14.2936 20.9112C14.5268 21.1445 14.6433 21.4945 14.6433 21.9612L13.8272 27.0945C13.7107 27.5612 14.0604 27.7945 14.177 27.9112C14.2936 28.0279 14.5268 28.1445 14.8765 27.9112L19.3067 25.4612C19.6565 25.2279 20.1228 25.2279 20.4725 25.4612L24.9027 27.9112C25.2525 28.0279 25.4857 27.9112 25.6022 27.9112C25.7188 27.7945 25.952 27.5612 25.952 27.0945L25.1359 21.9612C25.0193 21.6112 25.1359 21.2612 25.4857 20.9112L29.0998 17.2945C29.2164 17.0612 29.0998 16.5945 29.0998 16.4779C29.0998 16.3612 28.8666 16.0112 28.5168 16.0112L23.5037 15.3112C23.154 15.3112 22.8042 14.9612 22.5711 14.6112L20.356 9.94453C20.2394 9.47786 19.8896 9.47786 19.773 9.47786Z" fill="#2265BD"/>
</svg>
