<svg width="20" height="20" viewBox="0 0 20 20" fill="none" xmlns="http://www.w3.org/2000/svg">
<path d="M18.19 7.87313C17.9623 7.11624 17.2794 6.51074 16.5207 6.43505L13.3338 5.98092L11.8922 2.95339C11.5128 2.12082 10.8299 1.66669 9.99522 1.66669C9.16057 1.66669 8.47768 2.12082 8.09829 2.8777L6.65662 5.90523L3.46978 6.43505C2.711 6.58643 2.02811 7.11624 1.80048 7.87313C1.49697 8.7057 1.7246 9.53827 2.33162 10.1438L4.68381 12.4901L4.15267 15.8204C4.00092 16.653 4.3803 17.4855 5.0632 17.9397C5.44259 18.1667 5.82197 18.3181 6.27724 18.3181C6.65662 18.3181 6.96013 18.2424 7.26364 18.091L10.147 16.5016L13.0303 18.091C13.7132 18.4695 14.5479 18.3938 15.2308 17.9397C15.9137 17.4855 16.293 16.653 16.1413 15.8204L15.6101 12.4901L17.9623 10.1438C18.2658 9.53827 18.4935 8.63001 18.19 7.87313Z" fill="#D43030"/>
</svg>
