<svg width="30" height="20" viewBox="0 0 30 20" fill="none" xmlns="http://www.w3.org/2000/svg">
<path d="M29.037 3.11437C29.0347 3.05545 29.031 2.99728 29.0249 2.93911C28.8903 1.65032 27.7997 0.646342 26.4738 0.646342L26.4776 0.655407C26.4095 0.650875 26.3415 0.647852 26.2719 0.647852C18.9317 0.644075 11.5923 0.644075 4.25213 0.647852C2.92175 0.648608 1.87272 1.47808 1.57548 2.77064C1.16858 4.54064 0.779825 6.31442 0.388803 8.08744C0.267034 8.63816 0.0809766 9.19039 0.0666064 9.74564C0.0234956 11.3933 0.0431599 13.0431 0.0545048 14.6923C0.0620681 15.7945 0.833522 16.7161 1.92793 16.88C2.45433 16.9593 2.99965 16.9291 3.53664 16.9254C3.73253 16.9238 3.80514 16.985 3.8664 17.1701C4.35953 18.6515 5.75041 19.6465 7.30089 19.6449C8.85363 19.6434 10.237 18.6508 10.7301 17.1641C10.7944 16.9714 10.8768 16.9269 11.0651 16.9276C13.8386 16.9337 16.6128 16.9337 19.3863 16.9269C19.5799 16.9261 19.6555 16.982 19.7175 17.1686C20.2061 18.6402 21.5849 19.6351 23.1225 19.6449C24.6783 19.6548 26.0684 18.6727 26.5721 17.192C26.619 17.0538 26.6705 16.9797 26.7786 16.9435C27.1114 16.9367 27.4268 16.8596 27.7104 16.7267C27.7119 16.7259 27.7134 16.7252 27.7149 16.7244C27.7248 16.7199 27.7339 16.7153 27.7437 16.7108C28.1082 16.5325 28.4191 16.2613 28.6452 15.9282C28.7564 15.7642 28.8464 15.5844 28.9122 15.3941C28.9848 15.1856 29.0279 14.9635 29.0378 14.7323C29.0393 14.7006 29.04 14.6696 29.04 14.6379V3.2088C29.0393 3.17707 29.0378 3.1461 29.037 3.11437ZM24.0694 2.46393C24.8719 2.46393 25.6608 2.44429 26.4489 2.47225C26.8497 2.4866 27.2075 2.85525 27.2135 3.25639C27.2324 4.48625 27.2203 5.71687 27.2203 6.96335C26.163 6.96335 25.1238 6.96335 24.0694 6.96335C24.0694 5.46304 24.0694 3.97255 24.0694 2.46393ZM19.0936 2.46771C20.1464 2.46771 21.1795 2.46771 22.2285 2.46771C22.2285 3.96424 22.2285 5.44868 22.2285 6.95655C21.1946 6.95655 20.1547 6.95655 19.0936 6.95655C19.0936 5.47437 19.0936 3.98313 19.0936 2.46771ZM14.1139 2.47602C15.1455 2.47602 16.1862 2.47602 17.2496 2.47602C17.2496 3.98011 17.2496 5.46455 17.2496 6.9641C16.2036 6.9641 15.1705 6.9641 14.1139 6.9641C14.1139 5.4789 14.1139 3.98766 14.1139 2.47602ZM9.12893 2.46847C10.1825 2.46847 11.2156 2.46847 12.2639 2.46847C12.2639 3.965 12.2639 5.44944 12.2639 6.9573C11.2293 6.9573 10.1893 6.9573 9.12893 6.9573C9.12893 5.47362 9.12893 3.98237 9.12893 2.46847ZM2.96864 4.82242C3.09116 4.27171 3.20764 3.71948 3.33848 3.17027C3.43681 2.7578 3.74841 2.46998 4.15154 2.46393C5.18695 2.44883 6.22312 2.45865 7.29635 2.45865C7.29635 3.37651 7.29635 4.26038 7.29635 5.14424C7.29635 5.82263 7.29181 6.50026 7.29938 7.17865C7.30089 7.33502 7.25778 7.43323 7.12088 7.52237C6.52792 7.90538 5.94404 8.3035 5.35259 8.69104C5.27771 8.74015 5.18317 8.78396 5.09695 8.78472C4.12582 8.79076 3.15469 8.78774 2.18357 8.78623C2.15785 8.78623 2.13214 8.77339 2.09054 8.76205C2.38475 7.44607 2.6767 6.13463 2.96864 4.82242ZM7.28198 17.8357C6.29724 17.8289 5.48873 17.0175 5.48646 16.0324C5.48419 15.0337 6.29951 14.2179 7.29862 14.2186C8.29848 14.2194 9.11154 15.036 9.10851 16.0354C9.10473 17.0311 8.28185 17.8425 7.28198 17.8357ZM23.1301 17.8357C22.1348 17.8274 21.327 17.0009 21.3383 16.0014C21.3497 15.0073 22.1794 14.2043 23.1815 14.2186C24.1655 14.233 24.9642 15.0504 24.9596 16.0385C24.9551 17.0341 24.1307 17.844 23.1301 17.8357ZM23.0068 12.4116C21.5297 12.4547 20.1917 13.4526 19.7168 14.8872C19.654 15.0768 19.5761 15.1274 19.384 15.1274C16.6105 15.1206 13.8363 15.1206 11.0629 15.1274C10.8715 15.1282 10.7929 15.0775 10.7301 14.8879C10.2362 13.402 8.85212 12.4101 7.29862 12.4093C5.74588 12.4086 4.35802 13.402 3.86564 14.8857C3.80363 15.0723 3.72951 15.1365 3.53437 15.1282C3.14789 15.1115 2.76065 15.1274 2.37417 15.1221C2.03836 15.1168 1.87121 14.9491 1.86364 14.616C1.85835 14.3712 1.86289 14.1257 1.8644 13.8809C1.8644 13.8537 1.87348 13.8273 1.88179 13.782C2.85216 13.7072 3.22201 13.4488 3.2205 12.8588C3.21898 12.2764 2.86653 12.0308 1.86289 11.9357C1.86289 11.7173 1.86289 11.4952 1.86289 11.2724C1.86289 11.0578 1.86289 10.8433 1.86289 10.6C1.98919 10.6 2.08978 10.6 2.19038 10.6C3.22806 10.6 4.26574 10.5932 5.30342 10.6038C5.62033 10.6068 5.89034 10.5215 6.14976 10.3455C6.86676 9.8582 7.58905 9.37849 8.31588 8.90558C8.41874 8.83911 8.55715 8.79529 8.67892 8.79529C14.7832 8.79 20.8868 8.79076 26.9911 8.79076C27.0562 8.79076 27.1212 8.79076 27.2022 8.79076C27.2112 8.8663 27.2248 8.929 27.2248 8.99095C27.2264 10.8471 27.2248 12.7039 27.2271 14.5601C27.2271 14.7716 27.1878 14.9582 26.9851 15.0624C26.8058 15.1546 26.675 15.1758 26.5888 14.9136C26.0767 13.3529 24.6473 12.364 23.0068 12.4116Z" fill="#383B41"/>
</svg>
