<svg width="11" height="10" viewBox="0 0 11 10" fill="none" xmlns="http://www.w3.org/2000/svg">
<path fill-rule="evenodd" clip-rule="evenodd" d="M5.25568 1C2.99517 1 1.16266 2.79086 1.16266 5C1.16266 7.20914 2.99517 9 5.25568 9C7.5162 9 9.34871 7.20914 9.34871 5C9.34871 2.79086 7.5162 1 5.25568 1ZM0.139404 5C0.139404 2.23858 2.43004 0 5.25568 0C8.08133 0 10.372 2.23858 10.372 5C10.372 7.76142 8.08133 10 5.25568 10C2.43004 10 0.139404 7.76142 0.139404 5ZM5.25568 1.5C5.53825 1.5 5.76731 1.72386 5.76731 2V5.5C5.76731 5.77614 5.53825 6 5.25568 6C4.97312 6 4.74405 5.77614 4.74405 5.5V2C4.74405 1.72386 4.97312 1.5 5.25568 1.5ZM5.25568 7C5.53825 7 5.76731 7.22386 5.76731 7.5V8C5.76731 8.27614 5.53825 8.5 5.25568 8.5C4.97312 8.5 4.74405 8.27614 4.74405 8V7.5C4.74405 7.22386 4.97312 7 5.25568 7Z" fill="#D43030"/>
</svg>
