<svg width="18" height="18" viewBox="0 0 18 18" fill="none" xmlns="http://www.w3.org/2000/svg">
<path d="M13.6499 2.55002C12.2249 1.27502 10.3499 0.600019 8.3999 0.825019C5.3999 1.05002 2.9249 3.22502 2.3999 6.00002C2.0249 7.80002 2.3999 9.60002 3.5249 11.1L7.3499 16.425C7.6499 16.95 8.3249 17.25 8.9999 17.25C9.6749 17.25 10.3499 16.95 10.7249 16.35L14.5499 11.025C15.3749 9.90002 15.7499 8.62502 15.7499 7.27502C15.7499 5.47502 14.9999 3.75002 13.6499 2.55002Z" fill="#D43030"/>
<path d="M8.99995 9.82499C10.4083 9.82499 11.55 8.68332 11.55 7.27499C11.55 5.86666 10.4083 4.72499 8.99995 4.72499C7.59163 4.72499 6.44995 5.86666 6.44995 7.27499C6.44995 8.68332 7.59163 9.82499 8.99995 9.82499Z" fill="white"/>
</svg>
