<svg width="18" height="18" viewBox="0 0 18 18" fill="none" xmlns="http://www.w3.org/2000/svg">
    <path
        d="M13.65 2.55002C12.225 1.27502 10.35 0.600019 8.40002 0.825019C5.40002 1.05002 2.92502 3.22502 2.40002 6.00002C2.02502 7.80002 2.40002 9.60002 3.52502 11.1L7.35003 16.425C7.65003 16.95 8.32503 17.25 9.00003 17.25C9.67502 17.25 10.35 16.95 10.725 16.35L14.55 11.025C15.375 9.90002 15.75 8.62502 15.75 7.27502C15.75 5.47502 15 3.75002 13.65 2.55002Z"
        fill="#0162B4" />
    <path
        d="M8.99995 9.82498C10.4083 9.82498 11.55 8.6833 11.55 7.27498C11.55 5.86665 10.4083 4.72498 8.99995 4.72498C7.59163 4.72498 6.44995 5.86665 6.44995 7.27498C6.44995 8.6833 7.59163 9.82498 8.99995 9.82498Z"
        fill="white" />
</svg>
