<svg width="35" height="35" viewBox="0 0 35 35" fill="none" xmlns="http://www.w3.org/2000/svg">
<path d="M32.0704 6.125C31.0402 5.39583 29.7156 5.39583 28.6854 5.83333L22.5041 8.45833L13.3793 4.52083C13.085 4.375 12.9378 4.375 12.7906 4.375H12.6435C12.4963 4.375 12.3491 4.375 12.2019 4.52083L4.40173 7.72917C2.63564 8.45833 1.45825 10.2083 1.45825 12.25V25.6667C1.45825 26.9792 2.04695 28.1458 3.22434 28.875C3.81304 29.3125 4.5489 29.4583 5.28477 29.4583C5.7263 29.4583 6.31499 29.3125 6.75651 29.1667L9.55282 28C10.2887 27.7083 10.583 26.8333 10.2887 26.1042C9.99434 25.375 9.1113 25.0833 8.37543 25.375L5.57912 26.5417C5.28477 26.6875 4.99043 26.5417 4.84325 26.5417C4.69608 26.3958 4.40173 26.1042 4.40173 25.6667V12.25C4.40173 11.375 4.84325 10.6458 5.57912 10.3542L11.1717 8.02083V25.0833C11.1717 25.6667 11.4661 26.25 12.0548 26.3958L21.9154 30.4792C22.0626 30.4792 22.2098 30.625 22.357 30.625C22.5041 30.625 22.6513 30.625 22.7985 30.4792L30.4515 27.2708C32.2176 26.5417 33.395 24.6458 33.395 22.75V9.33333C33.8365 8.02083 33.2478 6.85417 32.0704 6.125ZM14.2624 8.02083L21.1796 10.9375V14V26.9792L14.2624 24.0625V8.02083ZM30.893 22.75C30.893 23.625 30.4515 24.3542 29.7157 24.6458L24.123 26.9792V14V10.9375L29.8628 8.45833C30.1572 8.3125 30.4515 8.45833 30.5987 8.45833C30.5987 8.60417 30.893 8.89583 30.893 9.33333V22.75Z" fill="#D43030"/>
</svg>
