<svg width="24" height="25" viewBox="0 0 24 25" fill="none" xmlns="http://www.w3.org/2000/svg">
<path fill-rule="evenodd" clip-rule="evenodd" d="M5.61728 5.15466C4.24604 5.15466 3 6.38227 3 8.12708V16.1822C3 17.9271 4.24604 19.1547 5.61728 19.1547H18.4787C19.8543 19.1547 21.0741 17.931 20.9966 16.2277C20.9959 16.2126 20.9955 16.1974 20.9955 16.1822V8.12708C20.9955 6.38227 19.7495 5.15466 18.3783 5.15466H5.61728ZM1 8.12708C1 5.45809 2.96932 3.15466 5.61728 3.15466H18.3783C21.0262 3.15466 22.9955 5.45809 22.9955 8.12708V16.1607C23.1061 18.8608 21.1146 21.1547 18.4787 21.1547H5.61728C2.96932 21.1547 1 18.8512 1 16.1822V8.12708Z" fill="white"/>
<path fill-rule="evenodd" clip-rule="evenodd" d="M5.12999 7.66162C5.40229 7.18113 6.01255 7.01236 6.49304 7.28466L11.1718 9.93621C11.7135 10.2275 12.2865 10.2275 12.8282 9.93621L17.5069 7.28466C17.9874 7.01236 18.5977 7.18113 18.87 7.66162C19.1423 8.14211 18.9735 8.75236 18.493 9.02467L13.8055 11.6812L13.7896 11.69C12.6483 12.3095 11.3517 12.3095 10.2104 11.69L10.1944 11.6812L5.50695 9.02467C5.02646 8.75236 4.85769 8.14211 5.12999 7.66162Z" fill="white"/>
</svg>
