<svg width="30" height="30" viewBox="0 0 30 30" fill="none" xmlns="http://www.w3.org/2000/svg">
<g clip-path="url(#clip0_310_624)">
<path d="M14.6603 25.6556C20.7328 25.6556 25.6556 20.7328 25.6556 14.6603C25.6556 8.58784 20.7328 3.6651 14.6603 3.6651C8.58784 3.6651 3.6651 8.58784 3.6651 14.6603C3.6651 20.7328 8.58784 25.6556 14.6603 25.6556Z" stroke="#383B41" stroke-width="1.83254" stroke-linecap="round" stroke-linejoin="round"/>
<path d="M10.9952 10.9952H11.0075" stroke="#383B41" stroke-width="1.83254" stroke-linecap="round" stroke-linejoin="round"/>
<path d="M18.3254 10.9952H18.3376" stroke="#383B41" stroke-width="1.83254" stroke-linecap="round" stroke-linejoin="round"/>
<path d="M19.547 15.882H9.7735M9.7735 15.882C9.7735 17.1781 10.2884 18.421 11.2048 19.3375C12.1212 20.2539 13.3642 20.7688 14.6603 20.7688C15.9563 20.7688 17.1993 20.2539 18.1157 19.3375C19.0322 18.421 19.547 17.1781 19.547 15.882H9.7735Z" stroke="#383B41" stroke-width="1.83254" stroke-linecap="round" stroke-linejoin="round"/>
</g>
<defs>
<clipPath id="clip0_310_624">
<rect width="29.3206" height="29.3206" fill="white"/>
</clipPath>
</defs>
</svg>
