<svg width="35" height="35" viewBox="0 0 35 35" fill="none" xmlns="http://www.w3.org/2000/svg">
<path d="M22.4584 33.5417H12.5417C9.62508 33.5417 7.29175 31.2083 7.29175 28.2917V6.70833C7.29175 3.79166 9.62508 1.45833 12.5417 1.45833H22.6042C25.5209 1.45833 27.8542 3.79166 27.8542 6.70833V28.4375C27.7084 31.2083 25.3751 33.5417 22.4584 33.5417ZM12.5417 4.375C11.2292 4.375 10.2084 5.39583 10.2084 6.70833V28.4375C10.2084 29.6042 11.2292 30.625 12.5417 30.625H22.6042C23.9167 30.625 24.9376 29.6042 24.9376 28.2917V6.70833C24.7917 5.39583 23.7709 4.375 22.4584 4.375H12.5417Z" fill="#D43030"/>
<path d="M19.3958 9.18748H15.6041C14.7291 9.18748 14.1458 8.60415 14.1458 7.72915C14.1458 6.85415 14.7291 6.27081 15.6041 6.27081H19.5416C20.4166 6.27081 20.9999 6.85415 20.9999 7.72915C20.9999 8.60415 20.2708 9.18748 19.3958 9.18748Z" fill="#D43030"/>
</svg>
