<svg width="24" height="25" viewBox="0 0 24 25" fill="none" xmlns="http://www.w3.org/2000/svg">
<path d="M15.4 23.1547H8.6C6.6 23.1547 5 21.5547 5 19.5547V4.75466C5 2.75466 6.6 1.15466 8.6 1.15466H15.5C17.5 1.15466 19.1 2.75466 19.1 4.75466V19.6547C19 21.5547 17.4 23.1547 15.4 23.1547ZM8.6 3.15466C7.7 3.15466 7 3.85466 7 4.75466V19.6547C7 20.4547 7.7 21.1547 8.6 21.1547H15.5C16.4 21.1547 17.1 20.4547 17.1 19.5547V4.75466C17 3.85466 16.3 3.15466 15.4 3.15466H8.6Z" fill="white"/>
<path d="M13.3 6.45465H10.7C10.1 6.45465 9.70001 6.05465 9.70001 5.45465C9.70001 4.85465 10.1 4.45465 10.7 4.45465H13.4C14 4.45465 14.4 4.85465 14.4 5.45465C14.4 6.05465 13.9 6.45465 13.3 6.45465Z" fill="white"/>
</svg>
