<svg width="20" height="20" viewBox="0 0 20 20" fill="none" xmlns="http://www.w3.org/2000/svg">
<path d="M10.0001 18.3333C5.41675 18.3333 1.66675 14.5833 1.66675 9.99999C1.66675 5.41666 5.41675 1.66666 10.0001 1.66666C14.5834 1.66666 18.3334 5.41666 18.3334 9.99999C18.3334 14.5833 14.5834 18.3333 10.0001 18.3333ZM10.0001 3.33332C6.33342 3.33332 3.33341 6.33332 3.33341 9.99999C3.33341 13.6667 6.33342 16.6667 10.0001 16.6667C13.6667 16.6667 16.6667 13.6667 16.6667 9.99999C16.6667 6.33332 13.6667 3.33332 10.0001 3.33332Z" fill="#D43030"/>
<path d="M14.0834 10.8333H10.0001C9.50008 10.8333 9.16675 10.5 9.16675 10V5.91668C9.16675 5.41668 9.50008 5.08334 10.0001 5.08334C10.5001 5.08334 10.8334 5.41668 10.8334 5.91668V9.16668H14.0834C14.5834 9.16668 14.9167 9.50001 14.9167 10C14.9167 10.5 14.5834 10.8333 14.0834 10.8333Z" fill="#D43030"/>
</svg>
