<svg width="12" height="12" viewBox="0 0 12 12" fill="none" xmlns="http://www.w3.org/2000/svg">
<path d="M8.73042 5.42345L4.23024 1.67329C4.07725 1.54674 3.88036 1.48598 3.68267 1.5043C3.48498 1.52263 3.3026 1.61854 3.17548 1.77105C3.04836 1.92355 2.98686 2.12022 3.00443 2.31798C3.02201 2.51573 3.11724 2.69847 3.26926 2.82616L7.07801 5.99991L3.26926 9.17366C3.11665 9.30118 3.0209 9.48406 3.00304 9.68213C2.98517 9.8802 3.04666 10.0773 3.174 10.23C3.30133 10.3828 3.48409 10.4788 3.68214 10.4969C3.88019 10.515 4.07732 10.4537 4.23024 10.3266L8.73042 6.57633C8.81481 6.50583 8.88268 6.41767 8.92926 6.31806C8.97583 6.21846 8.99997 6.10984 8.99997 5.99989C8.99997 5.88993 8.97583 5.78132 8.92926 5.68172C8.88268 5.58211 8.81481 5.49395 8.73042 5.42345Z" fill="#D0D0D0"/>
</svg>
