<svg width="35" height="35" viewBox="0 0 35 35" fill="none" xmlns="http://www.w3.org/2000/svg">
<path fill-rule="evenodd" clip-rule="evenodd" d="M7.29159 4.37499C5.68076 4.37499 4.37492 5.68083 4.37492 7.29166C4.37492 8.90249 5.68076 10.2083 7.29159 10.2083C8.90242 10.2083 10.2083 8.90249 10.2083 7.29166C10.2083 5.68083 8.90242 4.37499 7.29159 4.37499ZM1.45825 7.29166C1.45825 4.07 4.06992 1.45833 7.29159 1.45833C10.5132 1.45833 13.1249 4.07 13.1249 7.29166C13.1249 10.5133 10.5132 13.125 7.29159 13.125C4.06992 13.125 1.45825 10.5133 1.45825 7.29166Z" fill="#D43030"/>
<path fill-rule="evenodd" clip-rule="evenodd" d="M27.7083 24.7917C26.0975 24.7917 24.7917 26.0975 24.7917 27.7083C24.7917 29.3192 26.0975 30.625 27.7083 30.625C29.3192 30.625 30.625 29.3192 30.625 27.7083C30.625 26.0975 29.3192 24.7917 27.7083 24.7917ZM21.875 27.7083C21.875 24.4867 24.4867 21.875 27.7083 21.875C30.93 21.875 33.5417 24.4867 33.5417 27.7083C33.5417 30.93 30.93 33.5417 27.7083 33.5417C24.4867 33.5417 21.875 30.93 21.875 27.7083Z" fill="#D43030"/>
<path fill-rule="evenodd" clip-rule="evenodd" d="M14.5833 7.29166C14.5833 6.48625 15.2362 5.83333 16.0416 5.83333H25.2291C29.7466 5.83333 31.3754 11.7434 27.4027 13.9584L10.4791 23.5874C9.21066 24.292 9.62426 26.25 11.2291 26.25H18.9583C19.7637 26.25 20.4166 26.9029 20.4166 27.7083C20.4166 28.5137 19.7637 29.1667 18.9583 29.1667H11.2291C6.71164 29.1667 5.08287 23.2566 9.05553 21.0416L25.9792 11.4126C27.2476 10.708 26.834 8.74999 25.2291 8.74999H16.0416C15.2362 8.74999 14.5833 8.09708 14.5833 7.29166Z" fill="#D43030"/>
</svg>
