<svg width="13" height="14" viewBox="0 0 13 14" fill="none" xmlns="http://www.w3.org/2000/svg">
<path d="M10.0617 0H2.44496C1.79652 0 1.17463 0.256769 0.716113 0.713821C0.257594 1.17087 0 1.79077 0 2.43714V10.0272C0.000176569 10.4894 0.132354 10.9421 0.381082 11.3323C0.62981 11.7224 0.984813 12.034 1.40459 12.2304V13.1901C1.40468 13.4049 1.49036 13.6109 1.64279 13.7628C1.79522 13.9147 2.00192 14 2.21744 14H2.77982C2.99531 14 3.20198 13.9147 3.35435 13.7628C3.50673 13.6109 3.59233 13.4049 3.59233 13.1901V12.465H8.91433V13.1901C8.91433 13.4049 8.99994 13.6109 9.15231 13.7628C9.30469 13.9147 9.51135 14 9.72685 14H10.2892C10.5047 14 10.7114 13.9147 10.8639 13.7628C11.0163 13.6109 11.102 13.4049 11.1021 13.1901V12.2311C11.522 12.0346 11.877 11.7229 12.1258 11.3327C12.3745 10.9424 12.5066 10.4895 12.5067 10.0272V2.43546C12.5062 1.78938 12.2484 1.16991 11.79 0.713226C11.3315 0.256538 10.7099 -1.53942e-07 10.0617 0ZM2.93915 10.8808C2.71883 10.8808 2.50346 10.8157 2.32027 10.6937C2.13708 10.5717 1.9943 10.3982 1.90999 10.1953C1.82568 9.99245 1.80362 9.76919 1.8466 9.5538C1.88958 9.3384 1.99568 9.14055 2.15147 8.98526C2.30726 8.82997 2.50574 8.72421 2.72183 8.68137C2.93792 8.63852 3.16189 8.66051 3.36544 8.74456C3.56899 8.8286 3.74297 8.97092 3.86537 9.15352C3.98777 9.33613 4.05311 9.55081 4.05311 9.77042C4.05266 10.0645 3.93524 10.3463 3.7266 10.5541C3.51796 10.762 3.23514 10.8789 2.94016 10.8791L2.93915 10.8808ZM9.56549 10.8808C9.34517 10.8808 9.1298 10.8157 8.94661 10.6937C8.76342 10.5717 8.62064 10.3982 8.53633 10.1953C8.45202 9.99245 8.42996 9.76919 8.47294 9.5538C8.51592 9.3384 8.62202 9.14055 8.77781 8.98526C8.9336 8.82997 9.13208 8.72421 9.34817 8.68137C9.56425 8.63852 9.78823 8.66051 9.99178 8.74456C10.1953 8.8286 10.3693 8.97092 10.4917 9.15352C10.6141 9.33613 10.6794 9.55081 10.6794 9.77042C10.679 10.0645 10.5616 10.3463 10.3529 10.5541C10.1443 10.762 9.86148 10.8789 9.5665 10.8791L9.56549 10.8808ZM10.7527 6.4867H1.75296V2.74233H10.7537L10.7527 6.4867Z" fill="#D43030"/>
</svg>
