<svg width="35" height="35" viewBox="0 0 35 35" fill="none" xmlns="http://www.w3.org/2000/svg">
<path d="M10.9015 32.0833C10.1729 32.0833 9.44423 31.7917 8.71558 31.3542C7.54974 30.4792 6.82109 29.0208 7.11255 27.5625L7.98693 21.875L4.05222 17.7917C3.03211 16.7708 2.59492 15.1667 3.17784 13.7083C3.61503 12.25 4.78087 11.375 6.23817 11.0833L11.7759 10.2083L14.2533 5.10416C14.8363 3.79166 16.1478 2.91666 17.6051 2.91666C19.0624 2.91666 20.374 3.79166 21.1026 5.10416L23.4343 10.2083L28.8263 11.0833C30.2836 11.2292 31.4495 12.25 31.8867 13.7083C32.3239 15.1667 32.0324 16.625 31.0123 17.7917L27.0776 21.875L27.952 27.5625C28.2434 29.0208 27.6605 30.625 26.3489 31.3542C25.1831 32.2292 23.7258 32.2292 22.4142 31.6458L17.6051 28.875L12.796 31.5C12.2131 31.9375 11.6302 32.0833 10.9015 32.0833ZM17.6051 5.83332C17.4594 5.83332 17.0222 5.83332 16.8765 6.41666L14.1076 12.25C13.8161 12.6875 13.3789 12.9792 12.9418 12.9792L6.67536 14C6.23817 14 6.09244 14.4375 5.94671 14.5833C5.94671 14.7292 5.80098 15.1667 6.23817 15.6042L10.7558 20.125C11.0473 20.4167 11.193 20.8542 11.193 21.4375L10.1729 27.8542C10.0272 28.4375 10.4643 28.7292 10.6101 28.875C10.7558 29.0208 11.0473 29.1667 11.4845 28.875L17.0222 25.8125C17.4594 25.5208 18.0423 25.5208 18.4795 25.8125L24.0173 28.875C24.4544 29.0208 24.7459 28.875 24.8916 28.875C25.0374 28.7292 25.3288 28.4375 25.3288 27.8542L24.3087 21.4375C24.163 21 24.3087 20.5625 24.7459 20.125L29.2635 15.6042C29.4093 15.3125 29.2635 14.7292 29.2635 14.5833C29.2635 14.4375 28.9721 14 28.5349 14L22.2685 13.125C21.8313 13.125 21.3941 12.6875 21.1026 12.25L18.3338 6.41666C18.188 5.83332 17.7509 5.83332 17.6051 5.83332Z" fill="#D43030"/>
</svg>
