<svg width="30" height="30" viewBox="0 0 30 30" fill="none" xmlns="http://www.w3.org/2000/svg">
<g clip-path="url(#clip0_310_892)">
<path d="M14.6603 25.6555C20.7328 25.6555 25.6556 20.7328 25.6556 14.6603C25.6556 8.58778 20.7328 3.66504 14.6603 3.66504C8.58784 3.66504 3.6651 8.58778 3.6651 14.6603C3.6651 20.7328 8.58784 25.6555 14.6603 25.6555Z" stroke="#383B41" stroke-width="1.83254" stroke-linecap="round" stroke-linejoin="round"/>
<path d="M10.9952 12.2169H11.0075" stroke="#383B41" stroke-width="1.83254" stroke-linecap="round" stroke-linejoin="round"/>
<path d="M18.3254 12.2169H18.3376" stroke="#383B41" stroke-width="1.83254" stroke-linecap="round" stroke-linejoin="round"/>
<path d="M11.6061 18.3254C12.0042 18.7318 12.4794 19.0546 13.0039 19.275C13.5283 19.4953 14.0914 19.6088 14.6603 19.6088C15.2292 19.6088 15.7923 19.4953 16.3168 19.275C16.8412 19.0546 17.3164 18.7318 17.7145 18.3254" stroke="#383B41" stroke-width="1.83254" stroke-linecap="round" stroke-linejoin="round"/>
</g>
<defs>
<clipPath id="clip0_310_892">
<rect width="29.3206" height="29.3206" fill="white"/>
</clipPath>
</defs>
</svg>
