<svg width="14" height="28" viewBox="0 0 14 28" fill="none" xmlns="http://www.w3.org/2000/svg">
<path d="M10.25 7.125C10.875 6.375 11.25 5.5 11.25 4.5C11.25 2.125 9.375 0.25 7 0.25C4.625 0.25 2.75 2.125 2.75 4.5C2.75 5.5 3.125 6.375 3.75 7.125C1.875 8.125 0.75 10 0.75 12.125V15.625C0.75 16.375 1.25 16.875 2 16.875C2.75 16.875 3.25 16.375 3.25 15.625V12.125C3.25 10.75 4.125 9.5 5.5 9C6.625 8.625 7.875 8.625 9 9.125C10 9.75 10.75 10.875 10.75 12.125V15.75C10.75 16.5 11.25 17 12 17C12.75 17 13.25 16.5 13.25 15.75V12.125C13.25 10 12.125 8.125 10.25 7.125ZM7 2.75C8 2.75 8.75 3.5 8.75 4.5C8.75 5.5 8 6.125 7 6.125C6 6.125 5.25 5.375 5.25 4.375C5.25 3.375 6 2.75 7 2.75Z" fill="#D43030"/>
<path d="M9.5 17.25C8.75 17.25 8.25 17.75 8.25 18.5V24.125C8.25 24.75 7.75 25.25 7 25.25C6.25 25.25 5.75 24.75 5.75 24.25V18.625C5.75 17.875 5.25 17.375 4.5 17.375C3.75 17.375 3.25 17.875 3.25 18.625V24.25C3.25 26.125 4.875 27.75 7 27.75C9.125 27.75 10.75 26.125 10.75 24.25V18.625C10.75 17.875 10.25 17.25 9.5 17.25Z" fill="#D43030"/>
</svg>
