<svg width="28" height="28" viewBox="0 0 28 28" fill="none" xmlns="http://www.w3.org/2000/svg">
<path fill-rule="evenodd" clip-rule="evenodd" d="M20.358 2.73948C21.4108 3.31553 22.1667 4.45807 22.1667 5.83374V17.7335C22.1667 20.5184 19.0826 22.1685 16.815 20.5496C16.7895 20.5314 16.7646 20.5121 16.7406 20.4918L15.4961 19.4418C15.4783 19.4268 15.461 19.4112 15.4441 19.3952C14.4874 18.4845 13.2949 17.9171 11.9848 17.708V22.2834C11.9848 24.1345 10.6314 25.6667 8.78182 25.6667C6.89411 25.6667 5.57879 23.9763 5.57879 22.2834V17.4857C3.06306 16.9121 1.16667 14.53 1.16667 11.7836C1.16667 10.2371 1.71253 8.74734 2.88002 7.6775C3.82353 6.71504 5.1172 5.95038 6.74545 5.95038H10.7838C12.5738 5.84167 14.2339 5.22904 15.4871 4.24841L16.695 3.11598C16.7184 3.09402 16.7427 3.07305 16.7679 3.0531C17.9007 2.15447 19.2884 2.15421 20.358 2.73948ZM18.2498 4.85672L17.0464 5.98489C17.023 6.00684 16.9987 6.02782 16.9735 6.04777C15.2969 7.37775 13.1379 8.15272 10.8849 8.2818C10.8627 8.28307 10.8404 8.28371 10.8182 8.28371H6.74545C5.90021 8.28371 5.16655 8.67117 4.52845 9.32919C4.5104 9.34781 4.49173 9.36582 4.47248 9.38319C3.85005 9.94482 3.5 10.7764 3.5 11.7836C3.5 13.7595 5.06632 15.2835 6.74545 15.2835C7.38979 15.2835 7.91212 15.8058 7.91212 16.4502V22.2834C7.91212 22.9238 8.4069 23.3333 8.78182 23.3333C9.19482 23.3333 9.65151 22.9989 9.65151 22.2834V16.4502C9.65151 15.8058 10.1738 15.2835 10.8182 15.2835C13.1139 15.2835 15.3228 16.0718 17.0266 17.6802L18.2027 18.6725C18.8754 19.1174 19.8333 18.6669 19.8333 17.7335V5.83374C19.8333 5.34278 19.5711 4.96869 19.238 4.78642C18.9316 4.61879 18.5787 4.6133 18.2498 4.85672Z" fill="white"/>
<path fill-rule="evenodd" clip-rule="evenodd" d="M25.6667 8.16669C26.311 8.16669 26.8333 8.68902 26.8333 9.33335V14C26.8333 14.6444 26.311 15.1667 25.6667 15.1667C25.0223 15.1667 24.5 14.6444 24.5 14V9.33335C24.5 8.68902 25.0223 8.16669 25.6667 8.16669Z" fill="white"/>
</svg>
