<svg width="23" height="22" viewBox="0 0 23 22" fill="none" xmlns="http://www.w3.org/2000/svg">
<path d="M15.5229 6.23338C15.0896 5.80004 14.3313 5.90838 14.0063 6.34171C13.5729 6.77504 13.6813 7.53338 14.1146 7.85838C15.0896 8.61671 15.6313 9.80838 15.6313 11.1084C15.6313 13.3834 13.7896 15.3334 11.4063 15.3334C9.02292 15.3334 7.18125 13.3834 7.18125 11C7.18125 9.80838 7.72292 8.61671 8.69792 7.75004C9.13125 7.31671 9.23959 6.66671 8.80625 6.23338C8.37292 5.80004 7.72292 5.69171 7.28959 6.12504C5.88125 7.42504 5.01459 9.15838 5.01459 11C5.01459 14.4667 7.83125 17.3917 11.4063 17.3917C14.8729 17.3917 17.7979 14.575 17.7979 11C17.7979 9.15838 16.9313 7.42504 15.5229 6.23338Z" fill="white"/>
<path d="M11.4063 0.166687C5.44792 0.166687 0.572921 5.04169 0.572921 11C0.572921 16.9584 5.44792 21.8334 11.4063 21.8334C17.3646 21.8334 22.2396 16.9584 22.2396 11C22.2396 5.04169 17.3646 0.166687 11.4063 0.166687ZM11.4063 19.6667C6.63959 19.6667 2.73959 15.7667 2.73959 11C2.73959 6.23335 6.63959 2.33335 11.4063 2.33335C16.1729 2.33335 20.0729 6.23335 20.0729 11C20.0729 15.7667 16.1729 19.6667 11.4063 19.6667Z" fill="white"/>
<path d="M11.4063 10.025C12.0563 10.025 12.4896 9.59171 12.4896 8.94171V5.04171C12.4896 4.39171 12.0563 3.95837 11.4063 3.95837C10.7563 3.95837 10.3229 4.39171 10.3229 5.04171V9.05004C10.3229 9.59171 10.7563 10.025 11.4063 10.025Z" fill="white"/>
</svg>
