<svg width="18" height="18" viewBox="0 0 18 18" fill="none" xmlns="http://www.w3.org/2000/svg">
<path d="M8.16663 0.666687C12.3066 0.666687 15.6666 4.02669 15.6666 8.16669C15.6666 12.3067 12.3066 15.6667 8.16663 15.6667C4.02663 15.6667 0.666626 12.3067 0.666626 8.16669C0.666626 4.02669 4.02663 0.666687 8.16663 0.666687ZM8.16663 14C11.3891 14 14 11.3892 14 8.16669C14 4.94335 11.3891 2.33335 8.16663 2.33335C4.94329 2.33335 2.33329 4.94335 2.33329 8.16669C2.33329 11.3892 4.94329 14 8.16663 14ZM15.2375 14.0592L17.595 16.4159L16.4158 17.595L14.0591 15.2375L15.2375 14.0592V14.0592Z" fill="#B8B8B8"/>
</svg>
