<svg width="15" height="8" viewBox="0 0 15 8" fill="none" xmlns="http://www.w3.org/2000/svg">
<path d="M7.02325 0.00240932C7.25691 0.00195301 7.48334 0.0833277 7.66325 0.232409L13.6633 5.23241C13.8675 5.40215 13.9959 5.64606 14.0203 5.91049C14.0447 6.17491 13.963 6.43819 13.7933 6.64241C13.6235 6.84663 13.3796 6.97505 13.1152 6.99943C12.8508 7.02381 12.5875 6.94215 12.3833 6.77241L7.02325 2.29241L1.66325 6.61241C1.56096 6.69547 1.44327 6.75751 1.31693 6.79494C1.19059 6.83237 1.0581 6.84446 0.927072 6.83052C0.796043 6.81658 0.669061 6.77689 0.553424 6.71371C0.437787 6.65054 0.335775 6.56514 0.253253 6.46241C0.161674 6.35959 0.0923138 6.23896 0.0495215 6.10809C0.00672922 5.97721 -0.00857343 5.83891 0.00456917 5.70185C0.0177118 5.56479 0.0590183 5.43191 0.125901 5.31156C0.192784 5.1912 0.283804 5.08595 0.393254 5.00241L6.39325 0.172409C6.57834 0.0468934 6.80015 -0.0129615 7.02325 0.00240932Z" fill="#D43030"/>
</svg>
