<svg width="6" height="20" viewBox="0 0 6 20" fill="none" xmlns="http://www.w3.org/2000/svg">
<path d="M2.6 5.2C4.03594 5.2 5.2 4.03594 5.2 2.6C5.2 1.16406 4.03594 0 2.6 0C1.16406 0 0 1.16406 0 2.6C0 4.03594 1.16406 5.2 2.6 5.2Z" fill="black"/>
<path d="M2.6 12.6C4.03594 12.6 5.2 11.436 5.2 10C5.2 8.56408 4.03594 7.40002 2.6 7.40002C1.16406 7.40002 0 8.56408 0 10C0 11.436 1.16406 12.6 2.6 12.6Z" fill="black"/>
<path d="M2.6 20C4.03594 20 5.2 18.8359 5.2 17.4C5.2 15.964 4.03594 14.8 2.6 14.8C1.16406 14.8 0 15.964 0 17.4C0 18.8359 1.16406 20 2.6 20Z" fill="black"/>
</svg>
