<svg width="27" height="28" viewBox="0 0 27 28" fill="none" xmlns="http://www.w3.org/2000/svg">
<path fill-rule="evenodd" clip-rule="evenodd" d="M3.90625 4.42288C3.90625 2.63559 5.32458 1.16666 7.12886 1.16666H20.2641C20.9084 1.16666 21.4307 1.68899 21.4307 2.33332C21.4307 2.97766 20.9084 3.49999 20.2641 3.49999H7.12886C6.64877 3.49999 6.23959 3.88844 6.23959 4.42288C6.23959 4.95731 6.64877 5.34576 7.12886 5.34576H18.3223C20.6977 5.34576 22.5729 7.27904 22.5729 9.64676V22.5323C22.5729 24.9 20.6977 26.8333 18.3223 26.8333H8.15684C8.13052 26.8333 8.10422 26.8324 8.07797 26.8307C5.78031 26.675 3.90625 24.7989 3.90625 22.4162V4.42288ZM6.23959 7.55522V22.4162C6.23959 23.5047 7.08877 24.4071 8.20043 24.5H18.3223C19.3735 24.5 20.2396 23.6472 20.2396 22.5323V9.64676C20.2396 8.53189 19.3735 7.67909 18.3223 7.67909H7.12886C6.81934 7.67909 6.52118 7.63587 6.23959 7.55522Z" fill="white"/>
<path fill-rule="evenodd" clip-rule="evenodd" d="M13.3563 12.6C12.3253 12.6 11.4896 13.4357 11.4896 14.4667C11.4896 15.4976 12.3253 16.3333 13.3563 16.3333C14.3872 16.3333 15.2229 15.4976 15.2229 14.4667C15.2229 13.4357 14.3872 12.6 13.3563 12.6ZM9.15625 14.4667C9.15625 12.1471 11.0367 10.2667 13.3563 10.2667C15.6758 10.2667 17.5563 12.1471 17.5563 14.4667C17.5563 16.7863 15.6759 18.6667 13.3563 18.6667C11.0367 18.6667 9.15625 16.7863 9.15625 14.4667Z" fill="white"/>
<path fill-rule="evenodd" clip-rule="evenodd" d="M10.0896 20.8834C10.0896 20.239 10.6119 19.7167 11.2562 19.7167H15.3396C15.9839 19.7167 16.5062 20.239 16.5062 20.8834C16.5062 21.5277 15.9839 22.05 15.3396 22.05H11.2562C10.6119 22.05 10.0896 21.5277 10.0896 20.8834Z" fill="white"/>
</svg>
