<svg width="33" height="33" viewBox="0 0 33 33" fill="none" xmlns="http://www.w3.org/2000/svg">
<path d="M20.3234 3.51569C20.1073 3.29991 19.8145 3.1787 19.5091 3.1787C19.2038 3.1787 18.9109 3.29991 18.6948 3.51569L3.51534 18.6952C3.29956 18.9112 3.17835 19.2041 3.17835 19.5095C3.17835 19.8148 3.29956 20.1077 3.51534 20.3237L5.15774 21.9646C5.96079 21.5159 6.88832 21.3416 7.79946 21.4681C8.7106 21.5946 9.55556 22.015 10.206 22.6655C10.8565 23.3159 11.2769 24.1609 11.4034 25.072C11.5299 25.9832 11.3555 26.9107 10.9069 27.7138L12.5493 29.3577C12.6563 29.4648 12.7834 29.5497 12.9232 29.6077C13.0631 29.6656 13.213 29.6954 13.3643 29.6954C13.5157 29.6954 13.6656 29.6656 13.8055 29.6077C13.9453 29.5497 14.0724 29.4648 14.1794 29.3577L29.3573 14.1797C29.5731 13.9637 29.6943 13.6708 29.6943 13.3655C29.6943 13.0601 29.5731 12.7672 29.3573 12.5512L27.7134 10.9057C26.9104 11.3544 25.9828 11.5287 25.0717 11.4022C24.1605 11.2757 23.3156 10.8553 22.6651 10.2048C22.0147 9.55438 21.5943 8.70942 21.4678 7.79827C21.3413 6.88713 21.5156 5.9596 21.9643 5.15655L20.3234 3.51569ZM17.0663 1.88713C17.3873 1.56612 17.7683 1.31149 18.1877 1.13776C18.6072 0.964034 19.0567 0.874619 19.5106 0.874619C19.9646 0.874619 20.4141 0.964034 20.8335 1.13776C21.253 1.31149 21.634 1.56612 21.955 1.88713L23.7541 3.68777C24.5392 4.47133 24.3994 5.57291 24.003 6.23817C23.7851 6.60514 23.6957 7.03424 23.7488 7.4577C23.8019 7.88117 23.9946 8.27488 24.2964 8.57666C24.5982 8.87845 24.9919 9.07111 25.4153 9.12423C25.8388 9.17735 26.2679 9.08789 26.6349 8.87C27.3001 8.47514 28.4017 8.3338 29.1853 9.11889L30.9859 10.9211C31.3069 11.2421 31.5615 11.6232 31.7353 12.0426C31.909 12.462 31.9984 12.9115 31.9984 13.3655C31.9984 13.8194 31.909 14.2689 31.7353 14.6884C31.5615 15.1078 31.3069 15.4888 30.9859 15.8098L15.8095 30.9863C15.4885 31.3073 15.1074 31.5619 14.688 31.7356C14.2686 31.9093 13.8191 31.9988 13.3651 31.9988C12.9111 31.9988 12.4616 31.9093 12.0422 31.7356C11.6228 31.5619 11.2417 31.3073 10.9207 30.9863L9.12008 29.1871C8.33652 28.4036 8.47479 27.3005 8.87118 26.6367C9.08908 26.2698 9.17853 25.8407 9.12541 25.4172C9.0723 24.9937 8.87963 24.6 8.57785 24.2983C8.27607 23.9965 7.88236 23.8038 7.45889 23.7507C7.03542 23.6976 6.60632 23.787 6.23935 24.0049C5.5741 24.3998 4.47251 24.5396 3.68895 23.7545L1.88678 21.9538C1.56577 21.6328 1.31114 21.2518 1.13741 20.8324C0.963683 20.4129 0.874268 19.9634 0.874268 19.5095C0.874268 19.0555 0.963683 18.606 1.13741 18.1866C1.31114 17.7672 1.56577 17.3861 1.88678 17.0651L17.0663 1.88713Z" fill="#D43030" stroke="#D43030"/>
</svg>
