<svg width="30" height="20" viewBox="0 0 30 20" fill="none" xmlns="http://www.w3.org/2000/svg">
<path d="M0.0430679 2.52436C0.0453377 2.46544 0.0491161 2.40727 0.0551682 2.3491C0.189795 1.06031 1.28042 0.0563308 2.60626 0.0563308L2.60248 0.0653957C2.67055 0.0608631 2.73862 0.0578408 2.8082 0.0578408C10.1484 0.0540636 17.4878 0.0540636 24.828 0.0578408C26.1583 0.0585963 27.2074 0.888072 27.5046 2.18063C27.9115 3.95063 28.3003 5.72441 28.6913 7.49743C28.813 8.04815 28.9991 8.60037 29.0135 9.15562C29.0566 10.8032 29.0369 12.4531 29.0256 14.1023C29.018 15.2044 28.2466 16.1261 27.1521 16.29C26.6257 16.3693 26.0804 16.3391 25.5434 16.3353C25.3475 16.3338 25.2749 16.395 25.2137 16.5801C24.7206 18.0615 23.3297 19.0564 21.7792 19.0549C20.2264 19.0534 18.8431 18.0608 18.35 16.5741C18.2857 16.3814 18.2033 16.3369 18.0149 16.3376C15.2415 16.3437 12.4673 16.3437 9.69382 16.3369C9.5002 16.3361 9.42456 16.392 9.36255 16.5786C8.87396 18.0502 7.49517 19.0451 5.95755 19.0549C4.40178 19.0648 3.01165 18.0827 2.50794 16.602C2.46105 16.4638 2.40962 16.3897 2.30146 16.3535C1.96868 16.3467 1.65329 16.2696 1.36967 16.1367C1.36815 16.1359 1.36664 16.1352 1.36513 16.1344C1.3553 16.1299 1.34622 16.1253 1.33639 16.1208C0.971838 15.9425 0.660988 15.6713 0.434845 15.3382C0.323666 15.1742 0.23366 14.9944 0.16786 14.8041C0.0952511 14.5956 0.0521431 14.3735 0.0423107 14.1423C0.0407982 14.1106 0.0400391 14.0796 0.0400391 14.0479V2.61879C0.0407963 2.58706 0.0423126 2.55609 0.0430679 2.52436ZM5.01063 1.87392C4.20817 1.87392 3.41932 1.85428 2.63122 1.88223C2.23037 1.89659 1.87263 2.26524 1.86658 2.66638C1.84767 3.89624 1.85977 5.12686 1.85977 6.37334C2.91711 6.37334 3.95631 6.37334 5.01063 6.37334C5.01063 4.87303 5.01063 3.38254 5.01063 1.87392ZM9.98652 1.8777C8.93371 1.8777 7.90056 1.8777 6.85153 1.8777C6.85153 3.37423 6.85153 4.85867 6.85153 6.36653C7.88544 6.36653 8.92539 6.36653 9.98652 6.36653C9.98652 4.88436 9.98652 3.39312 9.98652 1.8777ZM14.9662 1.88601C13.9346 1.88601 12.8938 1.88601 11.8304 1.88601C11.8304 3.39009 11.8304 4.87454 11.8304 6.37409C12.8764 6.37409 13.9096 6.37409 14.9662 6.37409C14.9662 4.88889 14.9662 3.39765 14.9662 1.88601ZM19.9511 1.87846C18.8976 1.87846 17.8644 1.87846 16.8162 1.87846C16.8162 3.37499 16.8162 4.85943 16.8162 6.36729C17.8508 6.36729 18.8908 6.36729 19.9511 6.36729C19.9511 4.8836 19.9511 3.39236 19.9511 1.87846ZM26.1114 4.23241C25.9889 3.68169 25.8724 3.12947 25.7416 2.58026C25.6433 2.16779 25.3317 1.87997 24.9285 1.87392C23.8931 1.85881 22.857 1.86863 21.7837 1.86863C21.7837 2.7865 21.7837 3.67036 21.7837 4.55423C21.7837 5.23262 21.7883 5.91025 21.7807 6.58863C21.7792 6.74501 21.8223 6.84322 21.9592 6.93236C22.5522 7.31537 23.136 7.71349 23.7275 8.10103C23.8024 8.15013 23.8969 8.19395 23.9831 8.1947C24.9543 8.20075 25.9254 8.19773 26.8965 8.19622C26.9222 8.19622 26.9479 8.18337 26.9895 8.17204C26.6953 6.85606 26.4034 5.54461 26.1114 4.23241ZM21.7981 17.2457C22.7828 17.2389 23.5914 16.4275 23.5936 15.4424C23.5959 14.4437 22.7806 13.6278 21.7815 13.6286C20.7816 13.6294 19.9685 14.446 19.9716 15.4454C19.9753 16.4411 20.7982 17.2524 21.7981 17.2457ZM5.94999 17.2457C6.94532 17.2373 7.75308 16.4109 7.74173 15.4114C7.73039 14.4173 6.9007 13.6142 5.89856 13.6286C4.91458 13.6429 4.11589 14.4603 4.12043 15.4485C4.12497 16.4441 4.94937 17.254 5.94999 17.2457ZM6.07327 11.8216C7.55038 11.8646 8.88833 12.8626 9.3633 14.2972C9.42608 14.4868 9.50398 14.5374 9.69609 14.5374C12.4695 14.5306 15.2438 14.5306 18.0172 14.5374C18.2086 14.5381 18.2872 14.4875 18.35 14.2979C18.8439 12.812 20.228 11.8201 21.7815 11.8193C23.3342 11.8186 24.7221 12.812 25.2144 14.2957C25.2765 14.4822 25.3506 14.5465 25.5457 14.5381C25.9322 14.5215 26.3194 14.5374 26.7059 14.5321C27.0417 14.5268 27.2089 14.3591 27.2164 14.026C27.2217 13.7812 27.2172 13.5357 27.2157 13.2909C27.2157 13.2637 27.2066 13.2373 27.1983 13.1919C26.2279 13.1172 25.8581 12.8588 25.8596 12.2688C25.8611 11.6864 26.2135 11.4408 27.2172 11.3456C27.2172 11.1273 27.2172 10.9052 27.2172 10.6824C27.2172 10.4678 27.2172 10.2533 27.2172 10.01C27.0909 10.01 26.9903 10.01 26.8897 10.01C25.852 10.01 24.8143 10.0032 23.7767 10.0138C23.4598 10.0168 23.1897 9.93146 22.9303 9.75545C22.2133 9.26819 21.491 8.78848 20.7642 8.31557C20.6613 8.24909 20.5229 8.20528 20.4012 8.20528C14.2968 8.19999 8.19326 8.20075 2.08894 8.20075C2.02389 8.20075 1.95885 8.20075 1.87792 8.20075C1.86884 8.27629 1.85523 8.33899 1.85523 8.40094C1.85372 10.2571 1.85523 12.1139 1.85296 13.9701C1.85296 14.1816 1.89229 14.3682 2.09499 14.4724C2.27424 14.5646 2.40508 14.5857 2.4913 14.3236C3.00334 12.7629 4.4328 11.774 6.07327 11.8216Z" fill="#383B41"/>
</svg>
