<svg width="25" height="25" viewBox="0 0 25 25" fill="none" xmlns="http://www.w3.org/2000/svg">
<path d="M12.52 22.965C7.02002 22.965 2.52002 18.465 2.52002 12.965C2.52002 7.46502 7.02002 2.96502 12.52 2.96502C18.02 2.96502 22.52 7.46502 22.52 12.965C22.52 18.465 18.02 22.965 12.52 22.965ZM12.52 4.96502C8.12002 4.96502 4.52002 8.56502 4.52002 12.965C4.52002 17.365 8.12002 20.965 12.52 20.965C16.92 20.965 20.52 17.365 20.52 12.965C20.52 8.56502 16.92 4.96502 12.52 4.96502Z" fill="#383B41"/>
<path d="M17.42 13.965H12.52C11.92 13.965 11.52 13.565 11.52 12.965V8.06503C11.52 7.46503 11.92 7.06503 12.52 7.06503C13.12 7.06503 13.52 7.46503 13.52 8.06503V11.965H17.42C18.02 11.965 18.42 12.365 18.42 12.965C18.42 13.565 18.02 13.965 17.42 13.965Z" fill="#383B41"/>
</svg>
