<svg width="16" height="28" viewBox="0 0 16 28" fill="none" xmlns="http://www.w3.org/2000/svg">
<path d="M13.375 10C13.375 9.875 13.375 9.75 13.25 9.75C12.75 8.5 12 7.75 11 7.125C11.625 6.375 12 5.5 12 4.5C12 2.125 10.125 0.25 7.75001 0.25C5.37501 0.25 3.50001 2.125 3.50001 4.5C3.50001 5.5 3.87501 6.375 4.50001 7.125C3.50001 7.75 2.75001 8.5 2.25001 9.75C2.25001 9.875 2.12501 9.875 2.12501 10L0.250006 19.5C0.125006 20.125 0.500006 20.875 1.25001 21C1.87501 21.125 2.62501 20.75 2.75001 20L4.62501 10.75C5.25001 9.375 6.12501 8.875 7.75001 8.875C9.37501 8.875 10.25 9.375 10.875 10.75L12.75 20C12.875 20.625 13.375 21 14 21C14.125 21 14.125 21 14.25 21C14.875 20.875 15.375 20.25 15.25 19.5L13.375 10ZM7.75001 2.75C8.75001 2.75 9.50001 3.5 9.50001 4.5C9.50001 5.5 8.75001 6.125 7.75001 6.125C6.75001 6.125 6.00001 5.375 6.00001 4.375C6.00001 3.375 6.75001 2.75 7.75001 2.75Z" fill="#B8B8B8"/>
<path d="M10.25 20.75C9.5 20.75 9 21.25 9 22V24.25C9 24.75 8.5 25.25 7.75 25.25C7 25.25 6.5 24.75 6.5 24.25V22C6.5 21.25 6 20.75 5.25 20.75C4.5 20.75 4 21.25 4 22V24.25C4 26.125 5.625 27.75 7.75 27.75C9.875 27.75 11.5 26.125 11.5 24.25V22C11.5 21.25 11 20.75 10.25 20.75Z" fill="#B8B8B8"/>
</svg>
