<svg width="18" height="18" viewBox="0 0 18 18" fill="none" xmlns="http://www.w3.org/2000/svg">
<path d="M16.7112 7.0171L16.7176 7.03847L16.7259 7.05919C16.9424 7.59903 16.8041 8.30682 16.5495 8.84936L14.257 11.1361L14.0761 11.3165L14.1164 11.5688L14.6475 14.8991L14.6474 14.8991L14.6494 14.91C14.7639 15.5382 14.4773 16.1752 13.9539 16.5233C13.4037 16.8892 12.7694 16.929 12.2727 16.6537L12.2717 16.6531L9.38836 15.0637L9.14698 14.9306L8.9056 15.0637L6.03176 16.6479C5.80111 16.7616 5.57595 16.8181 5.27724 16.8181C4.94812 16.8181 4.66117 16.7134 4.33057 16.5169C3.81321 16.1675 3.53076 15.5344 3.64457 14.91L3.64469 14.91L3.64643 14.8991L4.17757 11.5688L4.21781 11.3165L4.03693 11.1361L1.68473 8.78975C1.2034 8.30962 1.03905 7.67851 1.27024 7.04434L1.27516 7.03085L1.27929 7.0171C1.44413 6.46899 1.9535 6.05045 2.56018 5.92685L5.73862 5.39843L5.99592 5.35566L6.10805 5.12017L7.54743 2.09744C7.84951 1.49811 8.36676 1.16666 8.99522 1.16666C9.61684 1.16666 10.1317 1.49025 10.4372 2.16069L10.4371 2.16072L10.4407 2.16832L11.8824 5.19585L11.9977 5.43805L12.2633 5.47589L15.4501 5.93002L15.4606 5.9315L15.471 5.93255C16.0078 5.98609 16.5356 6.4335 16.7112 7.0171Z" stroke="#B8B8B8"/>
</svg>
