<svg width="24" height="25" viewBox="0 0 24 25" fill="none" xmlns="http://www.w3.org/2000/svg">
<path d="M20.6791 17.5628C19.6769 15.1138 17.7727 13.2771 15.4676 12.3587C16.7705 11.3383 17.5723 9.70568 17.5723 7.97099C17.5723 4.70568 15.0667 2.15466 11.9598 2.15466C8.85296 2.15466 6.34741 4.70568 6.34741 7.86895C6.34741 9.60364 7.14919 11.2363 8.45207 12.2567C6.14697 13.1751 4.24275 15.0118 3.24053 17.4608C2.83964 18.4812 2.93987 19.7057 3.5412 20.6241C4.14253 21.6445 5.24497 22.1547 6.44763 22.1547H17.5723C18.7749 22.1547 19.7772 21.5424 20.4787 20.6241C21.08 19.7057 21.1803 18.5832 20.6791 17.5628ZM8.35185 7.86895C8.35185 5.82813 9.9554 4.19548 11.9598 4.19548C13.9643 4.19548 15.5678 5.82813 15.5678 7.86895C15.5678 9.90976 13.9643 11.5424 11.9598 11.5424C9.9554 11.5424 8.35185 9.90976 8.35185 7.86895ZM18.7749 19.6036C18.4743 20.0118 18.0734 20.3179 17.5723 20.3179H6.34741C5.8463 20.3179 5.44542 20.1138 5.14475 19.6036C4.84408 19.1955 4.84408 18.7873 5.04453 18.3792C6.24719 15.42 8.95318 13.5832 11.9598 13.5832C14.9665 13.5832 17.6725 15.42 18.8752 18.2771C19.0756 18.6853 18.9754 19.1955 18.7749 19.6036Z" fill="white"/>
</svg>
