<svg width="30" height="30" viewBox="0 0 30 30" fill="none" xmlns="http://www.w3.org/2000/svg">
<g clip-path="url(#clip0_310_859)">
<path d="M10.9952 12.2169H11.0075" stroke="#383B41" stroke-width="1.83254" stroke-linecap="round" stroke-linejoin="round"/>
<path d="M18.3254 12.2169H18.3377" stroke="#383B41" stroke-width="1.83254" stroke-linecap="round" stroke-linejoin="round"/>
<path d="M11.6061 18.6309C12.0043 18.2245 12.4795 17.9017 13.0039 17.6814C13.5284 17.461 14.0915 17.3475 14.6604 17.3475C15.2292 17.3475 15.7924 17.461 16.3168 17.6814C16.8413 17.9017 17.3165 18.2245 17.7146 18.6309" stroke="#383B41" stroke-width="1.83254" stroke-linecap="round" stroke-linejoin="round"/>
<path d="M21.4603 21.5092C21.1271 21.852 20.9018 22.2852 20.8123 22.7548C20.7228 23.2245 20.7731 23.7102 20.9569 24.1515C21.1408 24.5929 21.4501 24.9707 21.8465 25.238C22.2429 25.5053 22.7091 25.6504 23.1872 25.6554C23.6653 25.6603 24.1344 25.5249 24.5362 25.2658C24.9381 25.0068 25.2552 24.6355 25.4481 24.198C25.6411 23.7606 25.7014 23.2761 25.6217 22.8046C25.5419 22.3332 25.3256 21.8955 24.9996 21.5458L23.2122 19.5471L21.4603 21.5092V21.5092Z" stroke="#383B41" stroke-width="1.83254" stroke-linecap="round" stroke-linejoin="round"/>
<path d="M25.4907 16.5137C25.5983 15.9017 25.6534 15.2817 25.6556 14.6603C25.6556 12.4857 25.0107 10.3599 23.8026 8.55172C22.5944 6.74356 20.8772 5.33427 18.868 4.50207C16.8589 3.66986 14.6482 3.45212 12.5153 3.87638C10.3824 4.30063 8.42325 5.34782 6.88554 6.88554C5.34782 8.42325 4.30063 10.3824 3.87638 12.5153C3.45212 14.6482 3.66986 16.8589 4.50207 18.868C5.33427 20.8772 6.74356 22.5944 8.55172 23.8026C10.3599 25.0107 12.4857 25.6556 14.6603 25.6556C15.5033 25.6556 16.3218 25.5627 17.1037 25.3844" stroke="#383B41" stroke-width="1.83254" stroke-linecap="round" stroke-linejoin="round"/>
</g>
<defs>
<clipPath id="clip0_310_859">
<rect width="29.3206" height="29.3206" fill="white"/>
</clipPath>
</defs>
</svg>
